<svg width="964" height="200" viewBox="0 0 964 200" fill="none" xmlns="http://www.w3.org/2000/svg">
<g clip-path="url(#clip0_22_145)">
<path d="M89.1598 22.37C89.6698 27.42 89.9698 32.5 90.7398 37.5C91.9498 45.41 88.7798 50.67 82.6698 55.77C67.3198 68.57 52.6098 82.14 37.6698 95.43C32.8598 99.7 32.8898 100.44 37.7598 104.69C46.0398 111.93 54.2798 119.21 62.6898 126.3C64.0198 127.42 66.2998 128.32 67.8498 127.98C68.8398 127.77 70.0998 124.93 69.8398 123.53C68.5498 116.58 72.0898 112.66 77.5598 109.53C79.8598 108.21 81.7998 106.28 84.0898 104.94C85.3998 104.17 87.6398 103.25 88.4798 103.82C89.6898 104.65 90.0398 106.76 90.6598 108.36C90.8298 108.79 90.6898 109.35 90.6898 109.85C90.6898 130.35 90.7398 150.85 90.6098 171.34C90.5998 173.29 89.4498 175.24 88.8298 177.18C86.8198 176.39 84.3798 176.07 82.8598 174.73C56.4698 151.5 30.1798 128.15 3.87982 104.82C-1.25018 100.27 -1.28018 99.67 3.75982 95.2C28.8298 72.99 53.9298 50.82 78.9898 28.6C81.1798 26.66 83.1098 24.44 85.1698 22.35C86.4898 22.37 87.8298 22.37 89.1598 22.37Z" fill="#E50914"/>
<path d="M104.16 22.37C119.41 36.02 134.64 49.7 149.91 63.32C162.1 74.19 174.34 84.99 186.55 95.84C190.69 99.52 190.73 100.8 186.52 104.52C159.83 128.17 133.14 151.81 106.35 175.34C105.04 176.49 102.49 177.57 101.23 177.03C100.05 176.52 99.5297 173.87 99.1897 172.07C96.3997 157.5 101.89 147.21 113.82 138.29C127.39 128.15 139.46 116.01 152.15 104.71C156.78 100.59 156.73 99.53 151.97 95.37C143.81 88.25 135.7 81.07 127.41 74.1C125.95 72.88 123.73 72.57 121.85 71.84C121.23 73.61 119.92 75.46 120.12 77.13C120.84 83.03 118.65 86.97 113.48 89.74C110.86 91.14 108.7 93.38 106.13 94.89C104.68 95.75 102.22 96.8 101.31 96.17C100.05 95.3 99.2397 92.94 99.2297 91.21C99.0997 70.05 99.0897 48.88 99.2297 27.72C99.2397 25.93 100.49 24.15 101.16 22.37C102.16 22.37 103.16 22.37 104.16 22.37Z" fill="#E50914"/>
<path d="M211.69 83.57C212.54 80.75 213.32 77.9 214.26 75.11C223.84 46.6 255.38 32.98 282.83 45.48C284.01 46.02 285.22 46.51 287 47.28C287.94 44.78 288.96 42.57 289.6 40.25C290.26 37.87 290.54 35.4 291.04 32.66C298.53 32.66 305.92 32.66 313.74 32.66C314.19 42.73 311.42 51.67 306.57 59.93C304.74 63.05 304.73 65.3 306.36 68.53C315.97 87.54 312.35 110.01 297.52 125.37C296.51 126.42 295.54 127.52 294.77 128.37C298.91 132.38 303.26 135.82 306.65 140.02C316.67 152.41 316.47 168.04 306.41 180.41C297.9 190.88 286.41 196.08 273.45 198.56C272.18 198.8 270.94 199.23 269.68 199.56C267.01 199.56 264.35 199.56 261.68 199.56C261.68 192.96 261.68 186.36 261.68 180.83C268.21 178.5 274.22 177.26 279.28 174.36C291.51 167.33 291.82 152.86 279.6 145.89C274.1 142.75 267.15 141.24 260.73 140.78C245.23 139.65 232.57 133.67 222.61 121.8C216.69 114.74 214.05 106.21 211.67 97.56C211.69 92.9 211.69 88.24 211.69 83.57ZM290.79 90.9C290.86 74.63 277.98 61.62 261.77 61.57C245.79 61.52 232.72 74.37 232.59 90.24C232.46 106.63 245.12 119.62 261.36 119.75C277.71 119.88 290.73 107.12 290.79 90.9Z" fill="#E50914"/>
<path d="M963.69 43.5701C962.72 45.0301 961.57 46.4101 960.8 47.9801C946.17 77.4701 931.53 106.95 917.07 136.52C915.52 139.7 913.6 140.32 910.3 140.82C901.13 142.21 896.74 138.51 892.92 130.11C880.12 101.97 866.27 74.3101 852.83 46.4601C852.11 44.9801 851.49 43.4501 850.35 40.9001C857.45 40.9001 863.99 40.7001 870.49 41.0901C871.6 41.1601 872.79 43.6801 873.55 45.2501C883.64 66.0401 893.66 86.8601 903.71 107.67C904.49 109.28 905.32 110.87 906.62 113.42C907.91 111.14 908.83 109.7 909.59 108.17C919.99 87.1601 930.44 66.1801 940.67 45.0901C942.29 41.7601 944.18 40.3301 947.89 40.6901C953.13 41.2001 958.41 41.2901 963.68 41.5701C963.69 42.2401 963.69 42.9001 963.69 43.5701Z" fill="#E50914"/>
<path d="M564.34 90.1201C563.01 92.6001 562.21 94.01 561.49 95.46C554.6 109.32 547.67 123.16 540.91 137.08C539.66 139.65 538.2 140.71 535.24 140.73C522.18 140.82 522.18 140.92 516.81 129.09C504.37 101.66 491.93 74.24 479.5 46.81C478.78 45.22 478.16 43.57 477.03 40.84C484.22 40.84 490.48 40.59 496.69 41.04C497.98 41.13 499.45 43.62 500.22 45.29C509.52 65.55 518.7 85.87 527.93 106.17C528.74 107.94 529.69 109.65 531.01 112.22C532.25 109.93 533.12 108.43 533.89 106.87C540.61 93.3 547.4 79.76 553.94 66.11C555.51 62.82 557.54 61.97 561.12 61.47C570.41 60.17 575.07 63.75 578.26 72.54C582.51 84.23 588.39 95.33 593.57 106.68C594.25 108.17 595 109.62 596.19 112.06C597.52 109.66 598.51 108.08 599.32 106.41C609.21 86.05 619.13 65.71 628.88 45.29C630.43 42.03 632.23 40.43 636.04 40.69C641.12 41.04 646.25 40.78 652.31 40.78C651.37 43.32 650.9 44.99 650.16 46.53C635.65 76.48 621.05 106.39 606.66 136.39C605.03 139.78 602.92 140.34 599.45 140.86C590.17 142.24 585.5 138.71 582.31 129.9C578.08 118.2 572.21 107.1 567.04 95.74C566.37 94.24 565.63 92.7901 564.34 90.1201Z" fill="#E50914"/>
<path d="M727.47 49.9001C727.47 32.8301 727.47 16.7801 727.47 0.0500607C733.9 0.0500607 739.71 -0.129939 745.48 0.220061C746.49 0.280061 748.09 2.54006 748.16 3.86006C748.46 9.51006 748.29 15.1901 748.29 20.8501C748.29 43.5101 748.41 66.1801 748.26 88.8401C748.09 114.56 732.15 135 708.63 139.57C689.35 143.31 672.82 137.82 660.17 122.84C647.19 107.48 645.14 89.8001 652.21 71.2501C662.24 44.9201 694.67 33.2301 720.59 46.2801C722.51 47.2301 724.4 48.2701 727.47 49.9001ZM698.21 119.89C715.02 119.95 727.39 107.79 727.53 91.0701C727.66 75.0901 714.43 61.7201 698.4 61.6501C681.8 61.5801 669.33 73.9101 669.12 90.6001C668.92 106.64 682.03 119.84 698.21 119.89Z" fill="#E50914"/>
<path d="M779 101.32C783.39 116.93 803.56 124.94 818.46 116.64C823.96 113.58 826.64 114.61 829.54 119.23C830.68 121.05 832.27 122.59 833.65 124.26C837.76 129.24 837.74 129.39 832.47 132.8C814.15 144.62 788.46 142.94 772.34 128.87C756.19 114.77 750.98 90.1501 759.95 70.3601C769.29 49.7801 790.64 38.3501 813.65 41.6401C834.7 44.6501 851.99 62.3901 854.9 84.1101C855.36 87.5601 855.47 91.0801 855.51 94.5701C855.59 101.31 855.53 101.32 848.99 101.33C827.49 101.34 805.99 101.33 784.49 101.33C782.7 101.32 780.91 101.32 779 101.32ZM831.58 80.2501C829.9 70.0901 817.07 61.3501 804.88 61.6601C792.94 61.9701 780.59 70.8801 779.48 80.2501C796.75 80.2501 813.99 80.2501 831.58 80.2501Z" fill="#E50914"/>
<path d="M382.32 90.68C382.46 63.17 405.01 40.74 432.34 40.94C459.93 41.13 482.13 63.51 482.01 91.02C481.89 118.64 459.64 140.73 432.01 140.66C404.45 140.59 382.18 118.18 382.32 90.68ZM432.05 119.88C448.21 119.94 461.4 106.89 461.39 90.8301C461.38 75.0301 448.37 61.89 432.54 61.67C416.56 61.45 403.15 74.57 402.95 90.6C402.75 106.57 415.92 119.82 432.05 119.88Z" fill="#E50914"/>
<path d="M347.79 140.62C340.79 140.62 334.5 140.73 328.22 140.49C327.35 140.46 325.82 138.68 325.83 137.72C326 119.42 325.13 100.99 326.97 82.8401C329.3 59.9001 347.28 43.7201 370.03 41.0201C373.85 40.5701 375.15 41.5801 374.98 45.4001C374.79 49.8901 374.98 54.4001 375.18 58.8901C375.3 61.4801 374.57 63.0401 371.74 63.2001C357.98 63.9701 348.02 76.7201 347.83 92.8601C347.67 106.68 347.79 120.51 347.79 134.34C347.79 136.15 347.79 137.97 347.79 140.62Z" fill="#E50914"/>
</g>
<defs>
<clipPath id="clip0_22_145">
<rect width="963.69" height="199.57" fill="white"/>
</clipPath>
</defs>
</svg>
